<?xml version="1.0" encoding="UTF-8"?>
<svg xmlns="http://www.w3.org/2000/svg" version="1.1" xmlns:xlink="http://www.w3.org/1999/xlink" viewBox="0 0 31.9 32">
  <defs>
    <style>
      .cls-1 {
        fill: url(#linear-gradient-15);
      }

      .cls-2 {
        fill: url(#linear-gradient-13);
      }

      .cls-3 {
        fill: url(#linear-gradient-2);
      }

      .cls-4 {
        fill: url(#linear-gradient-10);
      }

      .cls-5 {
        fill: url(#linear-gradient-12);
      }

      .cls-6 {
        fill: #11392c;
      }

      .cls-7 {
        fill: url(#linear-gradient-4);
      }

      .cls-8 {
        fill: url(#linear-gradient-3);
      }

      .cls-9 {
        fill: url(#linear-gradient-5);
      }

      .cls-10 {
        fill: url(#linear-gradient-8);
      }

      .cls-11 {
        fill: url(#linear-gradient-14);
      }

      .cls-12 {
        fill: url(#linear-gradient-20);
      }

      .cls-13 {
        fill: url(#linear-gradient-17);
      }

      .cls-14 {
        fill: url(#linear-gradient-7);
      }

      .cls-15 {
        fill: url(#linear-gradient-9);
      }

      .cls-16 {
        fill: url(#linear-gradient-11);
      }

      .cls-17 {
        fill: url(#linear-gradient-19);
      }

      .cls-18 {
        fill: url(#linear-gradient-6);
      }

      .cls-19 {
        fill: url(#linear-gradient-21);
      }

      .cls-20 {
        fill: url(#linear-gradient-16);
      }

      .cls-21 {
        fill: url(#linear-gradient);
      }

      .cls-22 {
        fill: url(#linear-gradient-18);
      }
    </style>
    <linearGradient id="linear-gradient" x1="16.9" y1="-3.3" x2="30.3" y2="4.5" gradientUnits="userSpaceOnUse">
      <stop offset="0" stop-color="#99682a"/>
      <stop offset=".1" stop-color="#b28633"/>
      <stop offset=".4" stop-color="#e9c547"/>
      <stop offset=".5" stop-color="#ffde4f"/>
      <stop offset=".7" stop-color="#d5ad30"/>
      <stop offset=".9" stop-color="#aa7a10"/>
      <stop offset="1" stop-color="#996704"/>
    </linearGradient>
    <linearGradient id="linear-gradient-2" x1="16.1" y1="-1.9" x2="29.5" y2="6" xlink:href="#linear-gradient"/>
    <linearGradient id="linear-gradient-3" x1="7.4" y1="12.9" x2="20.8" y2="20.7" xlink:href="#linear-gradient"/>
    <linearGradient id="linear-gradient-4" x1="10.6" y1="7.5" x2="24" y2="15.3" xlink:href="#linear-gradient"/>
    <linearGradient id="linear-gradient-5" x1="9.9" y1="8.7" x2="23.3" y2="16.5" xlink:href="#linear-gradient"/>
    <linearGradient id="linear-gradient-6" x1="9.5" y1="9.4" x2="22.9" y2="17.3" xlink:href="#linear-gradient"/>
    <linearGradient id="linear-gradient-7" x1="9.5" y1="9.5" x2="22.8" y2="17.3" xlink:href="#linear-gradient"/>
    <linearGradient id="linear-gradient-8" x1="15.4" y1="-.7" x2="28.8" y2="7.2" xlink:href="#linear-gradient"/>
    <linearGradient id="linear-gradient-9" x1="13" y1="3.4" x2="26.4" y2="11.2" xlink:href="#linear-gradient"/>
    <linearGradient id="linear-gradient-10" x1="12.7" y1="3.9" x2="26.1" y2="11.7" xlink:href="#linear-gradient"/>
    <linearGradient id="linear-gradient-11" x1="13.2" y1="3" x2="26.6" y2="10.8" xlink:href="#linear-gradient"/>
    <linearGradient id="linear-gradient-12" x1="12" y1="5.1" x2="25.4" y2="12.9" xlink:href="#linear-gradient"/>
    <linearGradient id="linear-gradient-13" x1="12.9" y1="3.5" x2="26.3" y2="11.4" xlink:href="#linear-gradient"/>
    <linearGradient id="linear-gradient-14" x1="13.7" y1="2.3" x2="27" y2="10.1" xlink:href="#linear-gradient"/>
    <linearGradient id="linear-gradient-15" x1="13.8" y1="2.1" x2="27.1" y2="9.9" xlink:href="#linear-gradient"/>
    <linearGradient id="linear-gradient-16" x1="13.7" y1="2.1" x2="27.1" y2="9.9" xlink:href="#linear-gradient"/>
    <linearGradient id="linear-gradient-17" x1="13.4" y1="2.7" x2="26.8" y2="10.6" xlink:href="#linear-gradient"/>
    <linearGradient id="linear-gradient-18" x1="14.9" y1=".2" x2="28.3" y2="8" xlink:href="#linear-gradient"/>
    <linearGradient id="linear-gradient-19" x1="15.7" y1="-1.1" x2="29" y2="6.7" xlink:href="#linear-gradient"/>
    <linearGradient id="linear-gradient-20" x1="10" y1="8.5" x2="23.4" y2="16.3" xlink:href="#linear-gradient"/>
    <linearGradient id="linear-gradient-21" x1="7.4" y1="13" x2="20.8" y2="20.8" xlink:href="#linear-gradient"/>
  </defs>
  <!-- Generator: Adobe Illustrator 28.6.0, SVG Export Plug-In . SVG Version: 1.2.0 Build 709)  -->
  <g>
    <g id="Layer_1">
      <g>
        <g>
          <path class="cls-6" d="M26.3,1.1h0c0-.1-.1-.2-.1-.2-.5-.2-1.1-.3-1.6-.2h0s0,0,0-.1h0c0-.1-.1-.1-.1-.1-.9,0-1.7.4-2.3,1.1-.4.6-.6,1.4-.4,2.1-.4.2-.7.4-1.1.7,0-.2,0-.4,0-.7v-.2s-.2,0-.2,0c-.6,0-1.1.1-1.6.5,0-.5-.3-1-.6-1.3h0c0,0-.1,0-.1,0-.3,0-.6.4-.8.8,0,0,0-.2,0-.3v-.2s-.2,0-.2,0c-.4,0-.7.4-.8.6,0,0,0,0,0,0v-.4s-.3.2-.3.2c0,0,0,0,0,0,0,0-.1.1-.2.2,0,0-.1.1-.2.2-.6-.5-1.2-.9-1.8-1.3-4.9,3-7.9,8.3-7.9,14.1s1.9,8.9,5.1,12c.6-.7,1.1-1.3,1.6-1.9,0,0,0,0,0,0,0,0,.1-.1.2-.2,0,0,0,0,0,.1.4.4.9.7,1.5,1,.5.2.9.3,1.3.3,0,0,0,0,0,0l-1.9,2.6c0,0,0,0,.2,0,.8-.5,1.6-1.1,2.2-1.7,0-.1-.1-.3-.1-.4,0-.3.2-.6.5-.8,0,0,0,0,.1,0,0,0,0,0,0,0s0,0,0,0c0,0-.2,0-.2,0,0,0-.1,0-.2,0,0,0-.2,0-.3,0-.4,0-.9-.1-1.4-.3-.6-.2-1.2-.6-1.5-1,0,0,0,0,0-.1-.3-.3-.4-.7-.4-1,0,0,0-.1,0-.2.2-.4.6-.6,1.2-.6,0,0,.1,0,.2,0,0-.1,0-.3,0-.4.2-.9,0-1.6-.1-1.9-.7-2.6-3.3-4.3-3.3-4.3-2-1.5-2-3.2-2-3.2.6-.5.3-1.6.3-1.6.4.4.7,1.5.5,2,.4.2.8.8.8,1.3.4.1,1,.6,1,.6,0,0-.9-1.9.1-2.4,0,1.5.7,2,.7,2-.8-2.1-.3-3.2.4-3.4,0,1,.3,2.6.7,2.9-1-3.2,0-4.3.6-5.3.9-.3,1.1-1.5,1.1-1.5,0,0,.6,1.1-1.1,2.9.3,1-.1,1.6-.2,1.7,0,0,0,0,0,0,0,0,.6.4.8,1.7,0,0,.2.1.2.2,0-2.4.8-4.8,2.5-6.7,0,0,.1-.1.2-.2-.3,0-.9.1-1.5-.5-.9-.9-.2-1.6-.2-1.6,0,0-1.8-.9-1.3-2.4.4,0,.7.2.8.3,0,.7,0,1.5.7,2.2s1.1.9,1.5,1.1c0,0,.1,0,.2,0,0,0,.1,0,.2,0,0,0,0,0,0,0h0c0,0,0,.1,0,.1h.1c0,.1.1.2.1.2,0,.2.4,1,1.3,1.9.4.4.8.6,1.2.7,0,0,.2,0,.3,0,.1,0,.2,0,.3,0,.1,0,.2,0,.4,0,.2.2.3.4.3.8-.1,0-.3,0-.4,0-.1,0-.2,0-.3,0-.1,0-.2,0-.3,0-.9-.3-1.4-1.3-1.4-1.3,0,0-.7.7-1.6-.2s-.6-1.1-.5-1.4c0,0-.1.2-.2.2-.9,1.1-1.6,2.4-2,3.7.2-.3.4-.5.4-.5-.4,1.3.4,2,.4,2,.3,1,.4,1.1.8,2.2.2.6.4,1.2.5,1.8h0s.6,2.1.4,4.4c0,1-.3,2-.7,2.9.3.4.4.8.3,1.1,0,.1-.1.2-.2.3,0,0-.2.2-.4.2,0,0,0,0,0,0,0,0,0,0,0,0s0,0,0,0c0,0,.2,0,.2,0,1-1.1,1.8-2.2,2.5-3.5,1.3-2.4,1.9-5,1.9-7.8s-.2-2.9-.5-4.3c0,0,.2,0,.3,0,0,0,.1,0,.2,0s0,0,.1,0c.1,0,.3,0,.4,0h.1s0-.2,0-.2c0-.4-.1-.7-.3-.9.4,0,.9-.3,1.3-.8l.2-.3h-.4s0,0,0,0c.3-.1.5-.4.6-.8v-.3c0,0-.2,0-.2,0-.1,0-.2,0-.3,0,.4-.2.8-.6.8-.8h0c0-.1,0-.2,0-.2-.3-.3-.9-.5-1.3-.6.3-.5.5-1,.5-1.6v-.2s-.2,0-.2,0c-.4,0-.8,0-1.2.1,0-.4,0-.7,0-.9v-.2s-.2,0-.2,0c-.1,0-.3,0-.5,0,.3-.2.6-.4.9-.6h0s0,0,0,0c0,0,0,0,.1,0,0,0,0,0,0,0,0,0,0,0,.1,0,.4.3.9.4,1.5.4s.5,0,.8-.1c.9-.3,1.5-.9,1.8-1.8h0c0-.1,0-.2,0-.2,0,0,0,0,0,0h0c.3-.5.4-1,.4-1.6ZM8.4,14.4c0-1.3-.5-2.1-.5-2.1.3.2,1.1,1.2.5,2.1ZM15.9,14.4c-.4-.8-.3-1.4.3-2.2,0,0-.6.9-.3,2.2ZM17.7,13.6s0,0,0-.1c-.1,0-.3,0-.4,0l-.2-.2h0c0,0,0,0,0,0l.2-.2c0,0,.2-.1.4,0,0,0,0,0,0-.1,0,0,0-.2,0-.2l.2-.2h0s0,0,0,0h0s.2.2.2.2c0,0,.1.2,0,.4.1,0,.3,0,.4,0l.2.2h0c0,0,0,0,0,0l-.2.2c0,0-.2.1-.4,0,0,.1,0,.3,0,.4l-.2.2h0s0,0,0,0h0s-.2-.2-.2-.2c0,0,0-.2,0-.2ZM22.2,1.7c.5-.7,1.3-1.1,2.1-1,0,0,0,0,0,0,0,0,0,.1,0,.2.1.4.1.8,0,1.1,0,0,0,0,0,0,0,0,0,0,0,0-.3,0-.6,0-.9.1-.4.1-.7.3-1,.6-.3.3-.5.6-.7,1,0,0,0,0,0,0-.2-.7,0-1.4.4-2ZM20.4,4.6c0,.1,0,.2,0,.3,0,0,0,0,0,0,0,0,0,0,0,0-.1,0-.2,0-.4,0-.5,0-.9.3-1.3.7,0,0-.2.2-.3.3,0,0,0,0,0,0,0,0-.1.2-.2.2,0,0,0,.2-.1.3,0,.1,0,.2-.1.3,0,0,0,0,0,0,0-.2,0-.3,0-.5,0-.1,0-.3,0-.4,0-.1,0-.2,0-.4.1-.4.3-.8.6-1.1.5-.5,1.2-.7,1.8-.7,0,.3,0,.5,0,.8ZM18.1,2.8c.2.3.5.8.5,1.3-.2.2-.6.7-.8,1.3,0,.1,0,.2,0,.3,0,.1,0,.2,0,.3,0,0,0,.1,0,.2,0,0-.1-.2-.2-.3,0,0,0-.1,0-.2,0-.2-.1-.4-.1-.5,0-.2,0-.3,0-.5,0-.3,0-.5,0-.7h0s0,0,0,0c0,0,0,0,0-.1.1-.4.6-1,.9-1ZM17.1,3.2c0,.2,0,.4,0,.5,0,.2-.1.4-.1.8,0,.1,0,.3,0,.4,0,.1,0,.3,0,.5,0,0,0,0,0,0,0,0,0,0,0,0-.1-.1-.2-.3-.3-.4-.2-.2-.3-.5-.4-.7,0,0,0-.2,0-.2,0,0,0,0,0-.1,0-.3.3-.6.7-.7ZM15.6,4c0,0,.1-.1.2-.2,0,0,.1-.1.2-.2,0,0,0,0,0,0,0,0,0,0,0,0,0,.1,0,.2,0,.4,0,.2,0,.3.2.5,0,.2.2.3.3.5.3.3.5.7.7.9,0,0,0,0,0,0h0c.3.5.5.9.5,1.3,0,0,0,0,0,.1h0c0,0,0,.2,0,.3,0,.1,0,.3,0,.4,0,0,0,0,0,0,0,0,0,0,0,0,0,0-.1,0-.2,0,0,0-.1,0-.2,0-.4-.2-.9-.5-1.4-1-.7-.7-.7-1.5-.7-2.1,0-.2.1-.5.3-.8ZM13.9,10.7c.3-.5.7-1.2.7-2.3,0,0,.6,1.1-.7,2.3ZM14,13.3c.1-.4,0-.8,0-.8.8-.1,1.3-.8,1.3-.8,0,0-.2,1-1.3,1.6ZM14,12.5c.5-.4,1.1-.9,1.4-2,0,0,.2,1.3-1.4,2ZM22.9,10.4c-.3.5-.9.7-1.3.7-.2,0-.3,0-.5,0-.1,0-.2,0-.3,0-.1,0-.2,0-.3,0-.4,0-.7-.3-1-.6-.8-.8-1.1-1.6-1.2-1.8.2,0,.4,0,.7,0h0c.2,0,.3,0,.5,0,.1,0,.2,0,.4.1.1,0,.3.1.4.2,0,0,.1,0,.2.1h0s0,0,0,0c.3.2.6.4.9.7.6.5,1.1.5,1.5.5ZM23.3,9.4c-.1.5-.7.7-.9.8-.3,0-.6-.2-.9-.4-.2-.1-.3-.3-.5-.4.8.2,1.4,0,1.7,0,.1,0,.3,0,.5,0ZM23.7,8.4c0,.3-.6.8-1,.9,0,0,0,0-.1,0,0,0,0,0,0,0,0,0,0,0,0,0-.4,0-1.1.1-1.9-.2,0,0-.2-.1-.3-.2,1,0,1.8-.7,2.1-1,.4,0,1,.3,1.3.5ZM21.6,6.2c.4-.1.8-.2,1.2-.1,0,.7-.2,1.3-.7,1.8-.5.5-1.2.8-1.9.7-.1,0-.2,0-.3,0,0,0,0,0,0,0,0,0,0,0,0,0,0,0,0,0,0,0,0,0,.2,0,.3,0,.2,0,.4-.2.5-.3.1,0,.2-.2.3-.3.5-.5.7-1.1.7-1.7ZM21.4,5.1c0,.5,0,2-.8,2.7,0,0-.1.1-.2.2-.2.1-.3.2-.5.3,0,0-.2,0-.3,0,0,0-.2,0-.3,0,0,0-.2,0-.3,0-.4,0-.8,0-.9,0h0s-.1-.1-.1-.1h0c0,0,0-.1,0-.2,0,0,0-.2,0-.4,0-.1,0-.3,0-.4,0,0,0,0,0,0,0-.2,0-.3,0-.5,0,0,0-.2,0-.3,0,0,0-.2.1-.3,0,0,.1-.2.2-.3,0,0,0,0,0,0,0,0,.1-.1.2-.2.2-.2.5-.4.7-.5.2,0,.3-.1.5-.2.1,0,.3,0,.4,0,.1,0,.3,0,.4,0,.3,0,.6,0,.8,0ZM25.9,2.9c-.2.8-.9,1.4-1.7,1.7-.7.2-1.5,0-2.1-.3,0,0,0,0-.1,0,0,0,0,0-.1,0,0,0,0,0,0,0,0,0,0,0,0,0,0,0,0,0,0,0,0,0,0,0-.1,0,0,0,0,0,0,0-.4.2-.8.5-1.2.8,0,0,0,0,0,0,0,0,0-.2,0-.2.4-.3.8-.5,1.2-.7,0,0,0,0,0,0,0,0,0,0,0,0,0,0,.1,0,.2-.1.1-.3.3-.5.5-.7.3-.3.7-.6,1.1-.7.3,0,.5-.1.8,0,0,0,0,0,0,0,0,0,0,0,0,0,0,0,0,0,0,0,0,0,0,0,0,0,.4,0,.7.2,1.1.4,0,0,.1,0,.1.1,0,0,0,0,0,0ZM25.7,2.6s0,0,0,0c-.3-.2-.7-.4-1.1-.4,0,0,0,0,0,0,0,0,0,0,0,0,0-.4,0-.8,0-1.2,0,0,0,0,0,0,.5,0,1,0,1.5.2,0,.5,0,1-.3,1.5Z"/>
          <path class="cls-6" d="M22.9,4.4c-.1,0-.2,0-.3,0,.3,0,.6.1.9,0,.2,0,.4,0,.6-.1.5-.2.9-.5,1.2-.9-.4.3-.8.6-1.3.7-.4.1-.8.2-1.1.2Z"/>
          <path class="cls-6" d="M22.7,1.6c.3-.3.7-.6,1.2-.7,0,0,0,0,0,0-.2,0-.4,0-.5.1,0,0,0,0,0,0,0,0-.1,0-.2,0,0,0,0,0,0,0-.2,0-.3.2-.5.3-.4.4-.6.8-.8,1.3,0-.1.1-.3.2-.4.2-.3.4-.6.6-.8Z"/>
          <path class="cls-6" d="M16.7,26.9c0,0,0-.2,0-.3-.1.2-.2.3-.3.5.2,0,.3-.1.4-.2Z"/>
          <path class="cls-6" d="M13.2,25.9c.1-.2.3-.4.4-.6-.3,0-.4.1-.5.2,0,0,0,.2.1.4Z"/>
          <path class="cls-6" d="M14.8,16.2c1,1,1.5,2.1,2,4,0,0-.2-1.2-.5-2.1-.4-1-.9-1.9-.9-2.7-.3-.6-.4-1.1-.4-1.5-.2.8-.2,1.6-.2,2.4Z"/>
          <path class="cls-6" d="M19.6,8.3c0,0-.1,0-.2,0,0,0,.2,0,.2,0,0,0,.2,0,.3-.1.2-.1.5-.3.7-.5.3-.3.5-.7.6-1.2-.2.4-.4.8-.7,1.1-.2.2-.4.3-.6.5,0,0-.2,0-.3.1Z"/>
          <path class="cls-6" d="M20.8,10.8c-.1,0-.2,0-.3-.1,0,0-.2,0-.3-.1-.5-.3-.8-.6-1.1-1,.2.5.6.9,1,1.1.1,0,.3.1.4.2.1,0,.2,0,.3,0,.1,0,.2,0,.3,0,.2,0,.3,0,.5,0-.2,0-.3,0-.5,0-.1,0-.2,0-.3-.1Z"/>
          <path class="cls-6" d="M17,7.5c-.4-.3-.7-.7-1-1.1-.3-.5-.4-.9-.5-1.4,0,.5,0,1,.4,1.5.3.5.7.8,1.1,1Z"/>
          <path class="cls-6" d="M17.5,5.3c0-.1,0-.2,0-.4,0-.3,0-.5,0-.8,0-.4.2-.7.4-1-.3.3-.4.6-.5,1,0,.2,0,.5,0,.7,0,.1,0,.3.1.4Z"/>
          <path class="cls-6" d="M18,5.8s0,0,0-.1c.2-.3.4-.7.7-1,.3-.3.7-.6,1.1-.7-.4,0-.8.3-1.2.6-.3.3-.5.6-.6,1,0,0,0,.1,0,.2Z"/>
          <path class="cls-6" d="M21.9,7.9c.3-.3.5-.7.6-1.2-.2.4-.4.8-.7,1.1-.3.3-.7.6-1.1.7.4,0,.8-.3,1.2-.6Z"/>
          <path class="cls-6" d="M16.8,28.3c0,0-.1,0-.2,0-.2,0-.4.2-.4.4s0,.1,0,.2c0,0,0,.2.2.2,0,0,.2,0,.3,0s0,0,0,0c.2,0,.3-.2.3-.3,0,0,0,0,0,0,0,0,0-.2,0-.2,0,0-.1-.1-.2-.2Z"/>
          <path class="cls-6" d="M18.1,13.3c0,0,0-.2,0-.2s-.2,0-.2,0,0,.2,0,.2c0,0,.2,0,.2,0Z"/>
        </g>
        <path class="cls-21" d="M24.6,2.1s0,0,0,0c0,0,0,0,0,0,.4,0,.8.2,1.1.4,0,0,0,0,0,0,.2-.4.4-1,.3-1.5-.5-.2-1-.3-1.5-.2,0,0,0,0,0,0,.1.4.1.8,0,1.2Z"/>
        <path class="cls-3" d="M21.8,3.8c.2-.4.4-.7.7-1,.3-.3.6-.5,1-.6.3,0,.6-.1.9-.1,0,0,0,0,0,0,0,0,0,0,0,0,0-.4,0-.8,0-1.1,0,0,0-.1,0-.2,0,0,0,0,0,0-.8,0-1.6.3-2.1,1-.4.6-.6,1.3-.4,2,0,0,0,0,0,0ZM22.6,1.5c.2-.1.3-.3.5-.3,0,0,0,0,0,0,0,0,.1,0,.2,0,0,0,0,0,0,0,.2,0,.3-.1.5-.1,0,0,0,0,0,0-.4.2-.8.4-1.2.7-.3.2-.5.5-.6.8,0,.1-.2.3-.2.4.1-.5.4-.9.8-1.3Z"/>
        <path class="cls-8" d="M8,12.3s.5.8.5,2.1c.6-.9-.1-1.9-.5-2.1Z"/>
        <path class="cls-7" d="M14.5,8.4c0,1.1-.4,1.8-.7,2.3,1.3-1.2.7-2.3.7-2.3Z"/>
        <path class="cls-9" d="M15.4,10.5c-.3,1-.9,1.6-1.4,2,1.6-.7,1.4-2,1.4-2Z"/>
        <path class="cls-18" d="M15.9,14.4c-.3-1.3.3-2.2.3-2.2-.6.7-.8,1.3-.3,2.2Z"/>
        <path class="cls-14" d="M15.3,11.7s-.4.7-1.3.8c0,0,.1.3,0,.8,1.1-.6,1.3-1.6,1.3-1.6Z"/>
        <path class="cls-10" d="M20.5,5s0,0,0,0c.4-.3.8-.5,1.2-.8,0,0,0,0,0,0,0,0,0,0,.1,0,0,0,0,0,0,0,0,0,0,0,0,0,0,0,0,0,0,0,0,0,0,0,.1,0,0,0,0,0,.1,0,.6.4,1.4.5,2.1.3.8-.2,1.4-.9,1.7-1.7,0,0,0,0,0,0,0,0,0,0-.1-.1-.3-.2-.7-.4-1.1-.4,0,0,0,0,0,0,0,0,0,0,0,0,0,0,0,0,0,0,0,0,0,0,0,0-.3,0-.6,0-.8,0-.4.1-.8.4-1.1.7-.2.2-.3.5-.5.7,0,0-.1,0-.2.1,0,0,0,0,0,0,0,0,0,0,0,0-.4.2-.8.5-1.2.7,0,0,0,.2,0,.2ZM22.6,4.4c.1,0,.2,0,.3,0,.4,0,.8,0,1.1-.2.5-.2.9-.4,1.3-.7-.3.4-.7.7-1.2.9-.2,0-.4,0-.6.1-.3,0-.6,0-.9,0Z"/>
        <path class="cls-15" d="M23.7,8.4c-.3-.2-.8-.5-1.3-.5-.3.3-1.1,1-2.1,1,0,0,.2.1.3.2.9.3,1.5.3,1.9.2,0,0,0,0,0,0,0,0,0,0,0,0,0,0,0,0,.1,0,.4-.1,1-.6,1-.9Z"/>
        <path class="cls-4" d="M23.3,9.4c-.2,0-.4,0-.5,0-.3,0-.9.2-1.7,0,.2.1.3.2.5.4.3.3.6.4.9.4.2,0,.7-.3.9-.8Z"/>
        <path class="cls-16" d="M18,8.3h0s.1.1.1.1h0c0,0,.5.1.9,0,0,0,.2,0,.3,0,0,0,.2,0,.3,0,0,0,.2,0,.3,0,.2,0,.3-.2.5-.3,0,0,.1-.1.2-.2.8-.8.8-2.2.8-2.7-.2,0-.4,0-.8,0-.1,0-.2,0-.4,0-.1,0-.3,0-.4,0-.2,0-.3,0-.5.2-.3.1-.5.3-.7.5s-.1.1-.2.2c0,0,0,0,0,0,0,0-.1.2-.2.3,0,0,0,.2-.1.3,0,0,0,.2,0,.3,0,.2,0,.3,0,.5,0,0,0,0,0,0,0,.1,0,.3,0,.4,0,.1,0,.3,0,.4,0,0,0,.1,0,.1ZM20.5,7.7c-.2.2-.4.3-.7.5,0,0-.2,0-.3.1,0,0-.2,0-.2,0,0,0,.1,0,.2,0,0,0,.2,0,.3-.1.2-.1.4-.3.6-.5.3-.3.6-.7.7-1.1,0,.4-.3.8-.6,1.2Z"/>
        <path class="cls-5" d="M20.6,11.1c.1,0,.2,0,.3,0,.1,0,.2,0,.3,0,.2,0,.3,0,.5,0,.3,0,.9-.2,1.3-.7-.3,0-.9,0-1.5-.5-.3-.3-.7-.5-.9-.7,0,0,0,0,0,0h0c0,0-.1,0-.2-.1-.1,0-.3-.2-.4-.2-.1,0-.2,0-.4-.1-.2,0-.3,0-.5,0h0c-.3,0-.5,0-.7,0,0,.2.4,1,1.2,1.8.3.3.7.5,1,.6ZM19,9.5c.3.4.7.7,1.1,1,0,0,.2,0,.3.1.1,0,.2,0,.3.1.1,0,.2,0,.3.1.2,0,.3,0,.5,0-.2,0-.3,0-.5,0-.1,0-.2,0-.3,0-.1,0-.2,0-.3,0-.1,0-.3-.1-.4-.2-.5-.3-.8-.7-1-1.1Z"/>
        <path class="cls-2" d="M15.6,4c-.2.3-.3.6-.3.8,0,.6,0,1.4.7,2.1.5.5,1.1.9,1.4,1,0,0,.1,0,.2,0,0,0,.1,0,.2,0,0,0,0,0,0,0,0,0,0,0,0,0,0,0,0-.2,0-.4,0,0,0-.2,0-.3h0s0,0,0-.1c0-.4-.2-.9-.5-1.3h0s0,0,0,0c-.2-.3-.4-.6-.7-.9-.1-.2-.3-.4-.3-.5,0-.2-.1-.3-.2-.5,0-.1,0-.3,0-.4,0,0,0,0,0,0,0,0,0,0,0,0,0,0-.1.1-.2.2,0,0-.1.1-.2.2ZM15.8,6.4c-.3-.5-.4-1-.4-1.5,0,.5.2,1,.5,1.4.3.5.6.8,1,1.1-.5-.2-.9-.6-1.1-1Z"/>
        <path class="cls-11" d="M16.7,4.9c.1.1.2.3.3.4,0,0,0,0,0,0,0,0,0,0,0,0,0-.2,0-.3,0-.5,0-.2,0-.3,0-.4,0-.3,0-.6.1-.8,0-.1,0-.3,0-.5-.4,0-.6.5-.7.7,0,0,0,.1,0,.1,0,0,0,.2,0,.2,0,.2.2.4.4.7Z"/>
        <path class="cls-1" d="M17.2,5.2c0,.2,0,.4.1.5,0,0,0,.1,0,.2,0,0,.1.2.2.3,0,0,0-.1,0-.2,0-.1,0-.2,0-.3,0-.1,0-.2,0-.3.2-.6.6-1.1.8-1.3,0-.4-.3-1-.5-1.3-.3,0-.8.6-.9,1,0,0,0,0,0,.1,0,0,0,0,0,0h0c0,.2,0,.4,0,.7,0,.1,0,.3,0,.5ZM17.4,4.2c0-.4.3-.8.5-1-.2.3-.3.7-.4,1,0,.3,0,.5,0,.8,0,.1,0,.2,0,.4,0-.1-.1-.3-.1-.4,0-.2,0-.5,0-.7Z"/>
        <path class="cls-20" d="M18.2,6.2c0,0,0-.2.2-.2,0,0,0,0,0,0,0-.1.2-.2.3-.3.4-.4.8-.6,1.3-.7.1,0,.2,0,.4,0,0,0,0,0,0,0,0,0,0,0,0,0,0-.1,0-.2,0-.3,0-.3,0-.5,0-.8-.7,0-1.3.2-1.8.7-.3.3-.5.7-.6,1.1,0,.1,0,.2,0,.4,0,.1,0,.3,0,.4,0,.2,0,.3,0,.5,0,0,0,0,0,0,0-.1,0-.2.1-.3,0,0,0-.2.1-.3ZM18.6,4.6c.3-.3.7-.5,1.2-.6-.4.2-.8.4-1.1.7-.3.3-.5.6-.7,1,0,0,0,0,0,.1,0,0,0-.1,0-.2.1-.4.3-.7.6-1Z"/>
        <path class="cls-13" d="M20,8.5c0,0-.2,0-.3,0,0,0,0,0,0,0,0,0,0,0,0,0,0,0,0,0,0,0,.1,0,.2,0,.3,0,.7,0,1.4-.2,1.9-.7.5-.5.7-1.2.7-1.8-.4,0-.8,0-1.2.1,0,.6-.3,1.2-.7,1.7,0,0-.2.2-.3.3-.2.1-.4.2-.5.3ZM21.9,7.9c-.3.3-.7.5-1.2.6.4-.2.8-.4,1.1-.7.3-.3.6-.7.7-1.1,0,.4-.3.8-.6,1.2Z"/>
        <path class="cls-22" d="M25.7,5.8c0-.2,0-.4-.1-.6l-.3-.3h0c0,0,0,0,0,0h0c0,0-.3.3-.3.3-.1.1-.2.3-.2.4s0,.1,0,.2c-.2,0-.4,0-.6.1l-.3.3h0c0,0,0,0,0,0l.3.3c.2.2.4.2.6.1,0,0,0,.1,0,.2,0,.1,0,.3.2.4l.3.3h0c0,0,0,0,0,0h0c0,0,.3-.3.3-.3.2-.2.2-.4.1-.6.2,0,.4,0,.6-.1l.3-.3h0c0,0,0,0,0,0l-.3-.3c-.2-.2-.4-.2-.6-.1ZM25.4,6.4c-.1.1-.3.1-.4,0-.1-.1-.1-.3,0-.4.1-.1.3-.1.4,0s.1.3,0,.4Z"/>
        <path class="cls-17" d="M19.6,1.7c0,0,.2.1.4,0,0,0,0,0,0,.1,0,0,0,.2,0,.2l.2.2h0s0,0,0,0h0s.2-.2.2-.2c0,0,.1-.2,0-.4.1,0,.3,0,.4,0l.2-.2h0c0,0,0,0,0,0l-.2-.2c0,0-.2-.1-.4,0,0-.1,0-.3,0-.4l-.2-.2h0s0,0,0,0h0s-.2.2-.2.2c0,0,0,.2,0,.2s0,0,0,.1c-.1,0-.3,0-.4,0l-.2.2h0c0,0,0,0,0,0l.2.2ZM20.1,1.4c0,0,.2,0,.2,0s0,.2,0,.2c0,0-.2,0-.2,0,0,0,0-.2,0-.2Z"/>
        <path class="cls-12" d="M18.6,13.4l.2-.2h0c0,0,0,0,0,0l-.2-.2c0,0-.2-.1-.4,0,0-.1,0-.3,0-.4l-.2-.2h0s0,0,0,0h0s-.2.2-.2.2c0,0,0,.2,0,.2s0,0,0,.1c-.1,0-.3,0-.4,0l-.2.2h0c0,0,0,0,0,0l.2.2c0,0,.2.1.4,0,0,0,0,0,0,.1,0,0,0,.2,0,.2l.2.2h0s0,0,0,0h0s.2-.2.2-.2c0,0,.1-.2,0-.4.1,0,.3,0,.4,0ZM18.1,13.3c0,0-.2,0-.2,0,0,0,0-.2,0-.2s.2,0,.2,0,0,.2,0,.2Z"/>
        <path class="cls-19" d="M16.3,30.9c0,0,0,.1,0,.2,0,.1,0,.2.1.3l.2.2h0c0,0,0,0,0,0h0c0,0,.2-.3.2-.3.1-.1.2-.3,0-.5.2,0,.3,0,.5,0l.2-.2h0c0,0,0,0,0,0l-.2-.2c-.1-.1-.3-.2-.5,0,0-.2,0-.3,0-.5l-.2-.2h0c.4,0,.8-.4.8-.8s0-.2,0-.3c3-3.1,4.7-7.3,4.7-11.8s-.2-2.9-.5-4.2c0,0,0,0-.1,0s-.1,0-.2,0c0,0-.2,0-.3,0,.4,1.4.5,2.8.5,4.3,0,2.8-.7,5.5-1.9,7.8-.7,1.3-1.5,2.4-2.5,3.5,0,0-.1,0-.2,0,0,0,0,0,0,0s0,0,0,0c0,0,0,0,0,0,.1,0,.3-.1.4-.2,0,0,.1-.2.2-.3.1-.3,0-.7-.3-1.1.5-.9.7-1.9.7-2.9.2-2.3-.4-4.4-.4-4.4h0c-.1-.5-.3-1.1-.5-1.7-.4-1.1-.5-1.3-.8-2.2,0,0-.8-.7-.4-2,0,0-.2.1-.4.5.4-1.3,1.1-2.6,2-3.7,0,0,.1-.2.2-.2,0,.3,0,.9.5,1.4.9.9,1.6.2,1.6.2,0,0,.5,1,1.4,1.3,0,0,.2,0,.3,0,0,0,.2,0,.3,0,.1,0,.3,0,.4,0,0-.4-.2-.7-.3-.8-.1,0-.2,0-.4,0,0,0-.2,0-.3,0,0,0-.2,0-.3,0-.4,0-.8-.3-1.2-.7-.9-.9-1.2-1.8-1.3-1.9h-.1c0-.1-.1-.2-.1-.2h0c0,0,0-.1,0-.1,0,0,0,0,0,0,0,0-.1,0-.2,0,0,0-.1,0-.2,0-.4-.2-.9-.5-1.5-1.1s-.8-1.5-.7-2.2c-.2-.2-.4-.3-.8-.3-.5,1.5,1.3,2.4,1.3,2.4,0,0-.7.7.2,1.6s1.2.6,1.5.5c0,0-.1.1-.2.2-1.6,1.9-2.5,4.3-2.5,6.7,0,0-.2-.1-.2-.2-.2-1.4-.8-1.7-.8-1.7,0,0,0,0,0,0,0-.1.5-.8.2-1.7,1.6-1.8,1.1-2.9,1.1-2.9,0,0-.2,1.2-1.1,1.5-.7,1-1.6,2.1-.6,5.3-.5-.3-.8-2-.7-2.9-.7.2-1.3,1.3-.4,3.4,0,0-.6-.5-.7-2-1,.5-.1,2.4-.1,2.4,0,0-.6-.5-1-.6,0-.5-.5-1.1-.8-1.3.2-.4,0-1.5-.5-2,0,0,.2,1.1-.3,1.6,0,0,0,1.7,2,3.2,0,0,2.6,1.7,3.3,4.3.1.3.3,1,.1,1.9,0,.1,0,.3,0,.4,0,0-.1,0-.2,0-.6,0-1,.3-1.2.6,0,0,0,.1,0,.2,0,.3,0,.7.4,1,0,0,0,0,0,.1.4.4.9.7,1.5,1,.5.2.9.3,1.4.3,0,0,.2,0,.3,0s.1,0,.2,0c0,0,.2,0,.2,0,0,0,0,0,0,0,0,0,0,0,0,0,0,0,0,0-.1,0-.3.1-.5.4-.5.8s0,.3.1.4c-.7.6-1.4,1.2-2.2,1.7,0,0-.1,0-.2,0l1.9-2.6s0,0,0,0c-.4,0-.8-.1-1.3-.3-.6-.2-1.2-.6-1.5-1,0,0,0,0,0-.1,0,0-.1.1-.2.2,0,0,0,0,0,0-.4.6-1,1.2-1.6,1.9-3.3-3.1-5.1-7.4-5.1-12s2.9-11.1,7.9-14.1c.6.4,1.3.8,1.8,1.3,0,0,.1-.1.2-.2,0,0,.1-.1.2-.2-.6-.5-1.3-1-2.1-1.5h-.1c0,0-.1,0-.1,0-5.2,3.1-8.3,8.6-8.3,14.7s3.1,11.5,8.3,14.7h.1c0,0,.1,0,.1,0,.9-.6,1.8-1.2,2.5-1.9,0,0,.2,0,.3,0h0s-.2.2-.2.2c0,0-.1.2-.1.3s0,.1,0,.2c-.2,0-.3,0-.5,0l-.2.2h0c0,0,0,0,0,0l.2.2c.1.1.3.2.5,0ZM16.7,26.9c0,0-.2.2-.4.2.1-.2.2-.3.3-.5,0,.1,0,.2,0,.3ZM15,13.8c0,.4,0,.9.4,1.5,0,.8.5,1.7.9,2.7.4.9.5,2.1.5,2.1-.5-1.9-1-3-2-4,0-.8,0-1.6.2-2.4ZM13,25.5c0-.1.2-.2.5-.2-.1.2-.2.4-.4.6-.1-.2-.2-.3-.1-.4ZM16.6,29.1c0,0-.2,0-.3,0,0,0-.1-.1-.2-.2,0,0,0,0,0-.2,0-.2.2-.4.4-.4s.1,0,.2,0c0,0,.2,0,.2.2,0,0,0,.2,0,.2s0,0,0,0c0,.2-.2.3-.3.3,0,0,0,0,0,0ZM16.5,30.4c0,0,.2,0,.3,0s0,.2,0,.3-.2,0-.3,0,0-.2,0-.3Z"/>
      </g>
    </g>
  </g>
</svg>